<mxfile host="app.diagrams.net" modified="2021-09-29T08:01:27.019Z" agent="5.0 (Windows NT 10.0; Win64; x64) AppleWebKit/537.36 (KHTML, like Gecko) Chrome/92.0.4515.159 YaBrowser/21.8.3.614 Yowser/2.5 Safari/537.36" etag="myDphiQfU0VStBS6hILz" version="15.3.7" type="github">
  <diagram id="7aqlOsAIpZWU9PxrhFMI" name="Page-1">
    <mxGraphModel dx="1155" dy="1523" grid="1" gridSize="10" guides="1" tooltips="1" connect="1" arrows="1" fold="1" page="1" pageScale="1" pageWidth="1100" pageHeight="850" math="0" shadow="0">
      <root>
        <mxCell id="0" />
        <mxCell id="1" parent="0" />
        <mxCell id="bobk0k0vp5BoFHTUnK-K-1" value="Actor" style="shape=umlActor;verticalLabelPosition=bottom;verticalAlign=top;html=1;outlineConnect=0;" vertex="1" parent="1">
          <mxGeometry x="150" y="350" width="30" height="60" as="geometry" />
        </mxCell>
        <mxCell id="bobk0k0vp5BoFHTUnK-K-2" value="" style="endArrow=classic;html=1;" edge="1" parent="1">
          <mxGeometry width="50" height="50" relative="1" as="geometry">
            <mxPoint x="200" y="390" as="sourcePoint" />
            <mxPoint x="300" y="360" as="targetPoint" />
          </mxGeometry>
        </mxCell>
        <mxCell id="bobk0k0vp5BoFHTUnK-K-3" value="include&lt;br&gt;" style="edgeLabel;html=1;align=center;verticalAlign=middle;resizable=0;points=[];" vertex="1" connectable="0" parent="bobk0k0vp5BoFHTUnK-K-2">
          <mxGeometry x="0.3019" y="-2" relative="1" as="geometry">
            <mxPoint as="offset" />
          </mxGeometry>
        </mxCell>
        <mxCell id="bobk0k0vp5BoFHTUnK-K-4" value="Меню" style="ellipse;whiteSpace=wrap;html=1;" vertex="1" parent="1">
          <mxGeometry x="300" y="310" width="120" height="80" as="geometry" />
        </mxCell>
        <mxCell id="bobk0k0vp5BoFHTUnK-K-7" value="Меню автомобилей&lt;span style=&quot;color: rgba(0 , 0 , 0 , 0) ; font-family: monospace ; font-size: 0px&quot;&gt;%3CmxGraphModel%3E%3Croot%3E%3CmxCell%20id%3D%220%22%2F%3E%3CmxCell%20id%3D%221%22%20parent%3D%220%22%2F%3E%3CmxCell%20id%3D%222%22%20value%3D%22%22%20style%3D%22endArrow%3Dclassic%3Bhtml%3D1%3B%22%20edge%3D%221%22%20parent%3D%221%22%3E%3CmxGeometry%20width%3D%2250%22%20height%3D%2250%22%20relative%3D%221%22%20as%3D%22geometry%22%3E%3CmxPoint%20x%3D%22200%22%20y%3D%22390%22%20as%3D%22sourcePoint%22%2F%3E%3CmxPoint%20x%3D%22300%22%20y%3D%22360%22%20as%3D%22targetPoint%22%2F%3E%3C%2FmxGeometry%3E%3C%2FmxCell%3E%3CmxCell%20id%3D%223%22%20value%3D%22include%26lt%3Bbr%26gt%3B%22%20style%3D%22edgeLabel%3Bhtml%3D1%3Balign%3Dcenter%3BverticalAlign%3Dmiddle%3Bresizable%3D0%3Bpoints%3D%5B%5D%3B%22%20vertex%3D%221%22%20connectable%3D%220%22%20parent%3D%222%22%3E%3CmxGeometry%20x%3D%220.3019%22%20y%3D%22-2%22%20relative%3D%221%22%20as%3D%22geometry%22%3E%3CmxPoint%20as%3D%22offset%22%2F%3E%3C%2FmxGeometry%3E%3C%2FmxCell%3E%3CmxCell%20id%3D%224%22%20value%3D%22%D0%9C%D0%B5%D0%BD%D1%8E%22%20style%3D%22ellipse%3BwhiteSpace%3Dwrap%3Bhtml%3D1%3B%22%20vertex%3D%221%22%20parent%3D%221%22%3E%3CmxGeometry%20x%3D%22300%22%20y%3D%22310%22%20width%3D%22120%22%20height%3D%2280%22%20as%3D%22geometry%22%2F%3E%3C%2FmxCell%3E%3C%2Froot%3E%3C%2FmxGraphModel%3E&lt;/span&gt;" style="ellipse;whiteSpace=wrap;html=1;" vertex="1" parent="1">
          <mxGeometry x="440" y="180" width="120" height="80" as="geometry" />
        </mxCell>
        <mxCell id="bobk0k0vp5BoFHTUnK-K-8" value="" style="endArrow=classic;html=1;exitX=0;exitY=1;exitDx=0;exitDy=0;entryX=0.727;entryY=0.072;entryDx=0;entryDy=0;entryPerimeter=0;dashed=1;" edge="1" parent="1" source="bobk0k0vp5BoFHTUnK-K-7" target="bobk0k0vp5BoFHTUnK-K-4">
          <mxGeometry width="50" height="50" relative="1" as="geometry">
            <mxPoint x="370" y="310" as="sourcePoint" />
            <mxPoint x="420" y="260" as="targetPoint" />
          </mxGeometry>
        </mxCell>
        <mxCell id="bobk0k0vp5BoFHTUnK-K-9" value="extend" style="edgeLabel;html=1;align=center;verticalAlign=middle;resizable=0;points=[];" vertex="1" connectable="0" parent="bobk0k0vp5BoFHTUnK-K-8">
          <mxGeometry x="0.2839" y="2" relative="1" as="geometry">
            <mxPoint y="-1" as="offset" />
          </mxGeometry>
        </mxCell>
        <mxCell id="bobk0k0vp5BoFHTUnK-K-10" value="Меню студентов&lt;span style=&quot;color: rgba(0 , 0 , 0 , 0) ; font-family: monospace ; font-size: 0px&quot;&gt;%3CmxGraphModel%3E%3Croot%3E%3CmxCell%20id%3D%220%22%2F%3E%3CmxCell%20id%3D%221%22%20parent%3D%220%22%2F%3E%3CmxCell%20id%3D%222%22%20value%3D%22%22%20style%3D%22endArrow%3Dclassic%3Bhtml%3D1%3B%22%20edge%3D%221%22%20parent%3D%221%22%3E%3CmxGeometry%20width%3D%2250%22%20height%3D%2250%22%20relative%3D%221%22%20as%3D%22geometry%22%3E%3CmxPoint%20x%3D%22200%22%20y%3D%22390%22%20as%3D%22sourcePoint%22%2F%3E%3CmxPoint%20x%3D%22300%22%20y%3D%22360%22%20as%3D%22targetPoint%22%2F%3E%3C%2FmxGeometry%3E%3C%2FmxCell%3E%3CmxCell%20id%3D%223%22%20value%3D%22include%26lt%3Bbr%26gt%3B%22%20style%3D%22edgeLabel%3Bhtml%3D1%3Balign%3Dcenter%3BverticalAlign%3Dmiddle%3Bresizable%3D0%3Bpoints%3D%5B%5D%3B%22%20vertex%3D%221%22%20connectable%3D%220%22%20parent%3D%222%22%3E%3CmxGeometry%20x%3D%220.3019%22%20y%3D%22-2%22%20relative%3D%221%22%20as%3D%22geometry%22%3E%3CmxPoint%20as%3D%22offset%22%2F%3E%3C%2FmxGeometry%3E%3C%2FmxCell%3E%3CmxCell%20id%3D%224%22%20value%3D%22%D0%9C%D0%B5%D0%BD%D1%8E%22%20style%3D%22ellipse%3BwhiteSpace%3Dwrap%3Bhtml%3D1%3B%22%20vertex%3D%221%22%20parent%3D%221%22%3E%3CmxGeometry%20x%3D%22300%22%20y%3D%22310%22%20width%3D%22120%22%20height%3D%2280%22%20as%3D%22geometry%22%2F%3E%3C%2FmxCell%3E%3C%2Froot%3E%3C%2FmxGraphModel&lt;/span&gt;" style="ellipse;whiteSpace=wrap;html=1;" vertex="1" parent="1">
          <mxGeometry x="520" y="260" width="120" height="80" as="geometry" />
        </mxCell>
        <mxCell id="bobk0k0vp5BoFHTUnK-K-11" value="" style="endArrow=classic;html=1;exitX=0;exitY=1;exitDx=0;exitDy=0;entryX=0.727;entryY=0.072;entryDx=0;entryDy=0;entryPerimeter=0;dashed=1;" edge="1" parent="1" source="bobk0k0vp5BoFHTUnK-K-10">
          <mxGeometry width="50" height="50" relative="1" as="geometry">
            <mxPoint x="490.33359312880725" y="282.5242712474619" as="sourcePoint" />
            <mxPoint x="420" y="350" as="targetPoint" />
          </mxGeometry>
        </mxCell>
        <mxCell id="bobk0k0vp5BoFHTUnK-K-12" value="extend" style="edgeLabel;html=1;align=center;verticalAlign=middle;resizable=0;points=[];" vertex="1" connectable="0" parent="bobk0k0vp5BoFHTUnK-K-11">
          <mxGeometry x="0.2839" y="2" relative="1" as="geometry">
            <mxPoint y="-1" as="offset" />
          </mxGeometry>
        </mxCell>
        <mxCell id="bobk0k0vp5BoFHTUnK-K-13" value="Меню экзаменаторов&lt;span style=&quot;color: rgba(0 , 0 , 0 , 0) ; font-family: monospace ; font-size: 0px&quot;&gt;%3CmxGraphModel%3E%3Croot%3E%3CmxCell%20id%3D%220%22%2F%3E%3CmxCell%20id%3D%221%22%20parent%3D%220%22%2F%3E%3CmxCell%20id%3D%222%22%20value%3D%22%22%20style%3D%22endArrow%3Dclassic%3Bhtml%3D1%3B%22%20edge%3D%221%22%20parent%3D%221%22%3E%3CmxGeometry%20width%3D%2250%22%20height%3D%2250%22%20relative%3D%221%22%20as%3D%22geometry%22%3E%3CmxPoint%20x%3D%22200%22%20y%3D%22390%22%20as%3D%22sourcePoint%22%2F%3E%3CmxPoint%20x%3D%22300%22%20y%3D%22360%22%20as%3D%22targetPoint%22%2F%3E%3C%2FmxGeometry%3E%3C%2FmxCell%3E%3CmxCell%20id%3D%223%22%20value%3D%22include%26lt%3Bbr%26gt%3B%22%20style%3D%22edgeLabel%3Bhtml%3D1%3Balign%3Dcenter%3BverticalAlign%3Dmiddle%3Bresizable%3D0%3Bpoints%3D%5B%5D%3B%22%20vertex%3D%221%22%20connectable%3D%220%22%20parent%3D%222%22%3E%3CmxGeometry%20x%3D%220.3019%22%20y%3D%22-2%22%20relative%3D%221%22%20as%3D%22geometry%22%3E%3CmxPoint%20as%3D%22offset%22%2F%3E%3C%2FmxGeometry%3E%3C%2FmxCell%3E%3CmxCell%20id%3D%224%22%20value%3D%22%D0%9C%D0%B5%D0%BD%D1%8E%22%20style%3D%22ellipse%3BwhiteSpace%3Dwrap%3Bhtml%3D1%3B%22%20vertex%3D%221%22%20parent%3D%221%22%3E%3CmxGeometry%20x%3D%22300%22%20y%3D%22310%22%20width%3D%22120%22%20height%3D%2280%22%20as%3D%22geometry%22%2F%3E%3C%2FmxCell%3E%3C%2Froot%3E%3C%2FmxGraphModel&lt;/span&gt;" style="ellipse;whiteSpace=wrap;html=1;" vertex="1" parent="1">
          <mxGeometry x="530" y="345" width="120" height="80" as="geometry" />
        </mxCell>
        <mxCell id="bobk0k0vp5BoFHTUnK-K-14" value="Меню ошибок&lt;span style=&quot;color: rgba(0 , 0 , 0 , 0) ; font-family: monospace ; font-size: 0px&quot;&gt;%3CmxGraphModel%3E%3Croot%3E%3CmxCell%20id%3D%220%22%2F%3E%3CmxCell%20id%3D%221%22%20parent%3D%220%22%2F%3E%3CmxCell%20id%3D%222%22%20value%3D%22%22%20style%3D%22endArrow%3Dclassic%3Bhtml%3D1%3B%22%20edge%3D%221%22%20parent%3D%221%22%3E%3CmxGeometry%20width%3D%2250%22%20height%3D%2250%22%20relative%3D%221%22%20as%3D%22geometry%22%3E%3CmxPoint%20x%3D%22200%22%20y%3D%22390%22%20as%3D%22sourcePoint%22%2F%3E%3CmxPoint%20x%3D%22300%22%20y%3D%22360%22%20as%3D%22targetPoint%22%2F%3E%3C%2FmxGeometry%3E%3C%2FmxCell%3E%3CmxCell%20id%3D%223%22%20value%3D%22include%26lt%3Bbr%26gt%3B%22%20style%3D%22edgeLabel%3Bhtml%3D1%3Balign%3Dcenter%3BverticalAlign%3Dmiddle%3Bresizable%3D0%3Bpoints%3D%5B%5D%3B%22%20vertex%3D%221%22%20connectable%3D%220%22%20parent%3D%222%22%3E%3CmxGeometry%20x%3D%220.3019%22%20y%3D%22-2%22%20relative%3D%221%22%20as%3D%22geometry%22%3E%3CmxPoint%20as%3D%22offset%22%2F%3E%3C%2FmxGeometry%3E%3C%2FmxCell%3E%3CmxCell%20id%3D%224%22%20value%3D%22%D0%9C%D0%B5%D0%BD%D1%8E%22%20style%3D%22ellipse%3BwhiteSpace%3Dwrap%3Bhtml%3D1%3B%22%20vertex%3D%221%22%20parent%3D%221%22%3E%3CmxGeometry%20x%3D%22300%22%20y%3D%22310%22%20width%3D%22120%22%20height%3D%2280%22%20as%3D%22geometry%22%2F%3E%3C%2FmxCell%3E%3C%2Froot%3E%3C%2FmxGraphMode&lt;/span&gt;" style="ellipse;whiteSpace=wrap;html=1;" vertex="1" parent="1">
          <mxGeometry x="380" y="40" width="120" height="80" as="geometry" />
        </mxCell>
        <mxCell id="bobk0k0vp5BoFHTUnK-K-15" value="" style="endArrow=classic;html=1;entryX=0.5;entryY=0;entryDx=0;entryDy=0;dashed=1;" edge="1" parent="1" source="bobk0k0vp5BoFHTUnK-K-14" target="bobk0k0vp5BoFHTUnK-K-4">
          <mxGeometry width="50" height="50" relative="1" as="geometry">
            <mxPoint x="467.57359312880726" y="258.2842712474619" as="sourcePoint" />
            <mxPoint x="397.24" y="325.76" as="targetPoint" />
          </mxGeometry>
        </mxCell>
        <mxCell id="bobk0k0vp5BoFHTUnK-K-16" value="extend" style="edgeLabel;html=1;align=center;verticalAlign=middle;resizable=0;points=[];" vertex="1" connectable="0" parent="bobk0k0vp5BoFHTUnK-K-15">
          <mxGeometry x="0.2839" y="2" relative="1" as="geometry">
            <mxPoint y="-1" as="offset" />
          </mxGeometry>
        </mxCell>
        <mxCell id="bobk0k0vp5BoFHTUnK-K-17" value="" style="endArrow=classic;html=1;dashed=1;" edge="1" parent="1" source="bobk0k0vp5BoFHTUnK-K-13" target="bobk0k0vp5BoFHTUnK-K-4">
          <mxGeometry width="50" height="50" relative="1" as="geometry">
            <mxPoint x="436.4465710789027" y="128.9661081481545" as="sourcePoint" />
            <mxPoint x="370" y="320" as="targetPoint" />
          </mxGeometry>
        </mxCell>
        <mxCell id="bobk0k0vp5BoFHTUnK-K-18" value="extend" style="edgeLabel;html=1;align=center;verticalAlign=middle;resizable=0;points=[];" vertex="1" connectable="0" parent="bobk0k0vp5BoFHTUnK-K-17">
          <mxGeometry x="0.2839" y="2" relative="1" as="geometry">
            <mxPoint y="-1" as="offset" />
          </mxGeometry>
        </mxCell>
        <mxCell id="bobk0k0vp5BoFHTUnK-K-19" value="Действия" style="ellipse;whiteSpace=wrap;html=1;" vertex="1" parent="1">
          <mxGeometry x="670" y="70" width="120" height="80" as="geometry" />
        </mxCell>
        <mxCell id="bobk0k0vp5BoFHTUnK-K-20" value="" style="endArrow=classic;html=1;" edge="1" parent="1" source="bobk0k0vp5BoFHTUnK-K-14" target="bobk0k0vp5BoFHTUnK-K-19">
          <mxGeometry width="50" height="50" relative="1" as="geometry">
            <mxPoint x="510" y="100" as="sourcePoint" />
            <mxPoint x="610" y="70" as="targetPoint" />
          </mxGeometry>
        </mxCell>
        <mxCell id="bobk0k0vp5BoFHTUnK-K-21" value="include&lt;br&gt;" style="edgeLabel;html=1;align=center;verticalAlign=middle;resizable=0;points=[];" vertex="1" connectable="0" parent="bobk0k0vp5BoFHTUnK-K-20">
          <mxGeometry x="0.3019" y="-2" relative="1" as="geometry">
            <mxPoint as="offset" />
          </mxGeometry>
        </mxCell>
        <mxCell id="bobk0k0vp5BoFHTUnK-K-22" value="" style="endArrow=classic;html=1;" edge="1" parent="1" source="bobk0k0vp5BoFHTUnK-K-7" target="bobk0k0vp5BoFHTUnK-K-19">
          <mxGeometry width="50" height="50" relative="1" as="geometry">
            <mxPoint x="509.33618117209767" y="95.93361811720979" as="sourcePoint" />
            <mxPoint x="680.7095657984444" y="113.86650680673563" as="targetPoint" />
          </mxGeometry>
        </mxCell>
        <mxCell id="bobk0k0vp5BoFHTUnK-K-23" value="include&lt;br&gt;" style="edgeLabel;html=1;align=center;verticalAlign=middle;resizable=0;points=[];" vertex="1" connectable="0" parent="bobk0k0vp5BoFHTUnK-K-22">
          <mxGeometry x="0.3019" y="-2" relative="1" as="geometry">
            <mxPoint as="offset" />
          </mxGeometry>
        </mxCell>
        <mxCell id="bobk0k0vp5BoFHTUnK-K-24" value="" style="endArrow=classic;html=1;" edge="1" parent="1" source="bobk0k0vp5BoFHTUnK-K-10" target="bobk0k0vp5BoFHTUnK-K-19">
          <mxGeometry width="50" height="50" relative="1" as="geometry">
            <mxPoint x="558.8604609261656" y="206.7845323776229" as="sourcePoint" />
            <mxPoint x="691.2477049622291" y="143.31631501806453" as="targetPoint" />
          </mxGeometry>
        </mxCell>
        <mxCell id="bobk0k0vp5BoFHTUnK-K-25" value="include&lt;br&gt;" style="edgeLabel;html=1;align=center;verticalAlign=middle;resizable=0;points=[];" vertex="1" connectable="0" parent="bobk0k0vp5BoFHTUnK-K-24">
          <mxGeometry x="0.3019" y="-2" relative="1" as="geometry">
            <mxPoint as="offset" />
          </mxGeometry>
        </mxCell>
        <mxCell id="bobk0k0vp5BoFHTUnK-K-26" value="" style="endArrow=classic;html=1;" edge="1" parent="1" source="bobk0k0vp5BoFHTUnK-K-13" target="bobk0k0vp5BoFHTUnK-K-19">
          <mxGeometry width="50" height="50" relative="1" as="geometry">
            <mxPoint x="618.0204858962688" y="274.629878458808" as="sourcePoint" />
            <mxPoint x="712.0552140300426" y="155.39672889527947" as="targetPoint" />
          </mxGeometry>
        </mxCell>
        <mxCell id="bobk0k0vp5BoFHTUnK-K-27" value="include&lt;br&gt;" style="edgeLabel;html=1;align=center;verticalAlign=middle;resizable=0;points=[];" vertex="1" connectable="0" parent="bobk0k0vp5BoFHTUnK-K-26">
          <mxGeometry x="0.3019" y="-2" relative="1" as="geometry">
            <mxPoint as="offset" />
          </mxGeometry>
        </mxCell>
        <mxCell id="bobk0k0vp5BoFHTUnK-K-28" value="Добавить" style="ellipse;whiteSpace=wrap;html=1;" vertex="1" parent="1">
          <mxGeometry x="710" y="-90" width="120" height="80" as="geometry" />
        </mxCell>
        <mxCell id="bobk0k0vp5BoFHTUnK-K-29" value="Удалить&lt;span style=&quot;color: rgba(0 , 0 , 0 , 0) ; font-family: monospace ; font-size: 0px&quot;&gt;%3CmxGraphModel%3E%3Croot%3E%3CmxCell%20id%3D%220%22%2F%3E%3CmxCell%20id%3D%221%22%20parent%3D%220%22%2F%3E%3CmxCell%20id%3D%222%22%20value%3D%22%D0%94%D0%B5%D0%B9%D1%81%D1%82%D0%B2%D0%B8%D1%8F%22%20style%3D%22ellipse%3BwhiteSpace%3Dwrap%3Bhtml%3D1%3B%22%20vertex%3D%221%22%20parent%3D%221%22%3E%3CmxGeometry%20x%3D%22670%22%20y%3D%2270%22%20width%3D%22120%22%20height%3D%2280%22%20as%3D%22geometry%22%2F%3E%3C%2FmxCell%3E%3C%2Froot%3E%3C%2FmxGraphModel%3E&lt;/span&gt;" style="ellipse;whiteSpace=wrap;html=1;" vertex="1" parent="1">
          <mxGeometry x="810" y="10" width="120" height="80" as="geometry" />
        </mxCell>
        <mxCell id="bobk0k0vp5BoFHTUnK-K-30" value="Редактировать" style="ellipse;whiteSpace=wrap;html=1;" vertex="1" parent="1">
          <mxGeometry x="830" y="120" width="120" height="80" as="geometry" />
        </mxCell>
        <mxCell id="bobk0k0vp5BoFHTUnK-K-32" value="" style="endArrow=classic;html=1;dashed=1;" edge="1" parent="1" source="bobk0k0vp5BoFHTUnK-K-28" target="bobk0k0vp5BoFHTUnK-K-19">
          <mxGeometry width="50" height="50" relative="1" as="geometry">
            <mxPoint x="467.57359312880726" y="258.2842712474617" as="sourcePoint" />
            <mxPoint x="397.24" y="325.76" as="targetPoint" />
          </mxGeometry>
        </mxCell>
        <mxCell id="bobk0k0vp5BoFHTUnK-K-33" value="extend" style="edgeLabel;html=1;align=center;verticalAlign=middle;resizable=0;points=[];" vertex="1" connectable="0" parent="bobk0k0vp5BoFHTUnK-K-32">
          <mxGeometry x="0.2839" y="2" relative="1" as="geometry">
            <mxPoint y="-1" as="offset" />
          </mxGeometry>
        </mxCell>
        <mxCell id="bobk0k0vp5BoFHTUnK-K-34" value="" style="endArrow=classic;html=1;dashed=1;" edge="1" parent="1" source="bobk0k0vp5BoFHTUnK-K-29" target="bobk0k0vp5BoFHTUnK-K-19">
          <mxGeometry width="50" height="50" relative="1" as="geometry">
            <mxPoint x="770.1360607616784" y="-0.5442430467137456" as="sourcePoint" />
            <mxPoint x="749.8639392383216" y="80.54424304671375" as="targetPoint" />
          </mxGeometry>
        </mxCell>
        <mxCell id="bobk0k0vp5BoFHTUnK-K-35" value="extend" style="edgeLabel;html=1;align=center;verticalAlign=middle;resizable=0;points=[];" vertex="1" connectable="0" parent="bobk0k0vp5BoFHTUnK-K-34">
          <mxGeometry x="0.2839" y="2" relative="1" as="geometry">
            <mxPoint y="-1" as="offset" />
          </mxGeometry>
        </mxCell>
        <mxCell id="bobk0k0vp5BoFHTUnK-K-36" value="" style="endArrow=classic;html=1;dashed=1;" edge="1" parent="1" source="bobk0k0vp5BoFHTUnK-K-30" target="bobk0k0vp5BoFHTUnK-K-19">
          <mxGeometry width="50" height="50" relative="1" as="geometry">
            <mxPoint x="780.1360607616784" y="9.455756953286254" as="sourcePoint" />
            <mxPoint x="759.8639392383216" y="90.54424304671375" as="targetPoint" />
          </mxGeometry>
        </mxCell>
        <mxCell id="bobk0k0vp5BoFHTUnK-K-37" value="extend" style="edgeLabel;html=1;align=center;verticalAlign=middle;resizable=0;points=[];" vertex="1" connectable="0" parent="bobk0k0vp5BoFHTUnK-K-36">
          <mxGeometry x="0.2839" y="2" relative="1" as="geometry">
            <mxPoint y="-1" as="offset" />
          </mxGeometry>
        </mxCell>
      </root>
    </mxGraphModel>
  </diagram>
</mxfile>
